<svg xmlns="http://www.w3.org/2000/svg" viewBox="0 0 900 620" preserveAspectRatio="xMidYMid slice">
  <defs><linearGradient id="g" x1="0" x2="1" y1="0" y2="1"><stop stop-color="#d7b176"/><stop offset=".45" stop-color="#35676d"/><stop offset="1" stop-color="#113138"/></linearGradient></defs>
  <rect width="900" height="620" fill="url(#g)"/>
  <path d="M0 320 C150 260 250 330 430 280 C610 230 720 270 900 220 L900 620 L0 620Z" fill="#164b52" opacity=".75"/>
  <g fill="#356f35">
    <path d="M260 250 C310 210 400 210 440 260 C380 310 310 315 260 250Z"/>
    <path d="M360 310 C425 260 535 280 570 345 C500 398 410 390 360 310Z"/>
    <path d="M470 230 C520 205 600 215 625 260 C570 300 510 300 470 230Z"/>
  </g>
  <path d="M185 470 C260 430 310 450 360 470" stroke="#2a1710" stroke-width="8" fill="none" stroke-linecap="round"/>
  <path d="M240 448 l-30 35 l84 -9z" fill="#2a1710"/>
</svg>
