<svg xmlns="http://www.w3.org/2000/svg" viewBox="0 0 1800 900" preserveAspectRatio="xMidYMid slice">
  <defs>
    <linearGradient id="sky" x1="0" x2="1" y1="0" y2="1"><stop stop-color="#203946"/><stop offset=".55" stop-color="#d5a867"/><stop offset="1" stop-color="#f1d18a"/></linearGradient>
    <linearGradient id="water" x1="0" x2="1"><stop stop-color="#1c4d52"/><stop offset=".5" stop-color="#60786d"/><stop offset="1" stop-color="#d7a85c"/></linearGradient>
  </defs>
  <rect width="1800" height="900" fill="url(#sky)"/>
  <circle cx="1420" cy="210" r="100" fill="#f7d98b"/>
  <path d="M0 325 C260 215 430 360 650 255 C850 160 930 335 1130 245 C1340 140 1550 220 1800 120 L1800 500 L0 500Z" fill="#263238" opacity=".58"/>
  <path d="M0 450 C350 390 580 430 850 385 C1120 340 1360 390 1800 330 L1800 900 L0 900Z" fill="url(#water)"/>
  <g opacity=".68" fill="#173b32">
    <ellipse cx="250" cy="620" rx="160" ry="35"/><ellipse cx="610" cy="575" rx="230" ry="42"/><ellipse cx="960" cy="650" rx="280" ry="48"/><ellipse cx="1320" cy="570" rx="230" ry="40"/>
  </g>
  <g fill="none" stroke="#f6d48e" stroke-width="2" opacity=".35">
    <path d="M0 600 C420 540 720 635 1070 570 C1370 515 1510 575 1800 530"/>
    <path d="M0 700 C390 650 760 720 1120 665 C1390 625 1580 690 1800 640"/>
  </g>
  <g fill="#07151a" opacity=".8">
    <path d="M980 130 q45 -25 92 0 q-52 -5 -80 28 q-27 -31 -82 -28z"/>
    <path d="M1120 85 q35 -20 78 0 q-46 -4 -68 24 q-22 -27 -66 -24z"/>
    <path d="M780 95 q32 -18 72 0 q-42 -4 -63 22 q-21 -25 -62 -22z"/>
  </g>
</svg>
